<svg width="32" height="32" viewBox="0 0 32 32" fill="none" xmlns="http://www.w3.org/2000/svg">
<g clip-path="url(#clip0)">
<path d="M16 32C24.8366 32 32 24.8366 32 16C32 7.16344 24.8366 0 16 0C7.16344 0 0 7.16344 0 16C0 24.8366 7.16344 32 16 32Z" fill="#5F98D1"/>
<path d="M26.4281 8.93024H6.41218L13.6634 16.4806L15.7559 18.5994C14.6174 18.3391 14.5469 18.1769 14.0424 17.765C13.7778 17.549 13.2666 16.9618 12.4901 16.1688C10.0662 13.6937 5.95337 9.49386 5.95337 9.49386V21.9202L6.46993 22.4368L6.41212 22.497L15.6073 31.6922C15.8831 31.7063 16.1606 31.7136 16.4398 31.7136C25.2764 31.7136 32.4398 24.5502 32.4398 15.7136C32.4398 15.4482 32.4329 15.1845 32.4203 14.9223L26.4281 8.93024Z" fill="#3A6DA1"/>
<path d="M5.95337 9.78021V22.2066L12.0132 15.9683L5.95337 9.78021Z" fill="white"/>
<path d="M26.9262 9.78021V22.2066L20.8965 15.9934L26.9262 9.78021Z" fill="white"/>
<path d="M6.41211 9.21661H26.4281L18.5615 17.4077C18.0016 17.9907 17.2283 18.3202 16.4201 18.3202C15.6119 18.3202 14.8386 17.9907 14.2787 17.4077L6.41211 9.21661Z" fill="white"/>
<path d="M19.0153 17.8435C18.3404 18.5462 17.3945 18.9493 16.4201 18.9493C15.4458 18.9493 14.4999 18.5464 13.825 17.8435L12.4907 16.4542L6.41211 22.7833H26.4281L20.3496 16.4542L19.0153 17.8435Z" fill="white"/>
</g>
<defs>
<clipPath id="clip0">
<rect width="32" height="32" fill="white"/>
</clipPath>
</defs>
</svg>
