<svg width="37" height="37" viewBox="0 0 37 37" fill="none" xmlns="http://www.w3.org/2000/svg">
<path d="M18.5 36.9999C28.7172 36.9999 36.9999 28.7172 36.9999 18.5C36.9999 8.28272 28.7172 0 18.5 0C8.28272 0 0 8.28272 0 18.5C0 28.7172 8.28272 36.9999 18.5 36.9999Z" fill="#827DDC"/>
<path d="M27.4691 8.20669C27.0624 7.79992 26.5005 7.54822 25.8798 7.54822H11.12C9.87877 7.54822 8.87256 8.55443 8.87256 9.79565V24.5553C8.87256 25.1758 9.12397 25.7376 9.5306 26.1442L20.2985 36.9121C29.6714 36.0077 36.9996 28.1098 36.9996 18.4996C36.9996 18.2383 36.9928 17.9785 36.9821 17.7198L27.4691 8.20669Z" fill="#6E64C3"/>
<path d="M25.8798 7.54858H11.12C9.87877 7.54858 8.87256 8.5548 8.87256 9.79601V24.5558C8.87256 25.797 9.87877 26.8032 11.12 26.8032H23.5934L23.0871 24.7781L28.127 29.4514C28.127 28.9052 28.127 10.3287 28.127 9.79616C28.1271 8.5548 27.1209 7.54858 25.8798 7.54858Z" fill="#5046AF"/>
<path d="M23.3748 13.757C23.3748 13.757 22.4429 12.7704 20.3269 12.6276V12.9391C20.3269 12.9391 21.4875 12.8717 22.9241 14.2858C21.8397 13.5056 20.2927 13.0169 18.5744 13.0169C16.8561 13.0169 15.3091 13.5056 14.2247 14.2858C15.6613 12.8717 16.8219 12.9391 16.8219 12.9391V12.6276C14.7059 12.7704 13.774 13.757 13.774 13.757C12.1616 15.8339 12.0708 20.3774 12.0708 20.3774C13.5896 22.2077 15.4979 21.9741 15.4979 21.9741L16.1988 20.9616C15.2949 20.7171 14.6493 20.1557 14.2614 19.7185C15.3438 20.4835 16.8752 20.9616 18.5744 20.9616C20.2736 20.9616 21.805 20.4836 22.8874 19.7185C22.4995 20.1556 21.8539 20.7171 20.95 20.9616L21.6509 21.9741C21.6509 21.9741 23.5592 22.2078 25.078 20.3774C25.0781 20.3773 24.9872 15.8339 23.3748 13.757ZM16.5494 19.0922C15.94 19.0922 15.446 18.5674 15.446 17.9198C15.446 17.2723 15.94 16.7474 16.5494 16.7474C17.1588 16.7474 17.6528 17.2723 17.6528 17.9198C17.6528 18.5673 17.1588 19.0922 16.5494 19.0922ZM20.5995 19.0922C19.9901 19.0922 19.4961 18.5674 19.4961 17.9198C19.4961 17.2723 19.9901 16.7474 20.5995 16.7474C21.209 16.7474 21.703 17.2723 21.703 17.9198C21.703 18.5673 21.209 19.0922 20.5995 19.0922Z" fill="white"/>
</svg>
