<svg width="32" height="32" viewBox="0 0 32 32" fill="none" xmlns="http://www.w3.org/2000/svg">
<path d="M16 32C24.8366 32 32 24.8366 32 16C32 7.16344 24.8366 0 16 0C7.16344 0 0 7.16344 0 16C0 24.8366 7.16344 32 16 32Z" fill="#4D76A1"/>
<path fill-rule="evenodd" clip-rule="evenodd" d="M15.3957 23.0174H16.6515C16.6515 23.0174 17.0308 22.9758 17.2245 22.767C17.4028 22.5753 17.3971 22.2154 17.3971 22.2154C17.3971 22.2154 17.3725 20.5303 18.1546 20.2822C18.9255 20.0378 19.9155 21.9108 20.9648 22.631C21.7583 23.176 22.3612 23.0565 22.3612 23.0565L25.1669 23.0174C25.1669 23.0174 26.6346 22.927 25.9387 21.773C25.8816 21.6786 25.5334 20.9194 23.8526 19.3593C22.0934 17.7264 22.329 17.9905 24.4481 15.166C25.7387 13.4459 26.2547 12.3957 26.0936 11.9459C25.9398 11.5175 24.9906 11.6308 24.9906 11.6308L21.8316 11.6505C21.8316 11.6505 21.5974 11.6185 21.4237 11.7223C21.254 11.8242 21.1448 12.0615 21.1448 12.0615C21.1448 12.0615 20.6448 13.3926 19.978 14.5246C18.5713 16.9132 18.0088 17.0393 17.779 16.891C17.2442 16.5453 17.3777 15.5023 17.3777 14.7613C17.3777 12.4465 17.7288 11.4813 16.694 11.2315C16.3506 11.1485 16.0979 11.0937 15.2197 11.0849C14.0926 11.0732 13.1385 11.0883 12.5983 11.353C12.2389 11.529 11.9617 11.9211 12.1306 11.9437C12.3393 11.9716 12.8122 12.0712 13.0629 12.4126C13.3866 12.8529 13.3752 13.8421 13.3752 13.8421C13.3752 13.8421 13.5612 16.567 12.9409 16.9055C12.515 17.1377 11.9309 16.6637 10.6768 14.4966C10.0342 13.3866 9.54908 12.1596 9.54908 12.1596C9.54908 12.1596 9.45553 11.9303 9.28867 11.8076C9.08617 11.659 8.80324 11.6117 8.80324 11.6117L5.80135 11.6313C5.80135 11.6313 5.35071 11.6439 5.18528 11.8398C5.03811 12.0141 5.17359 12.3746 5.17359 12.3746C5.17359 12.3746 7.52376 17.873 10.1848 20.6439C12.6248 23.1843 15.3957 23.0174 15.3957 23.0174Z" fill="white"/>
</svg>
