<svg width="97" height="18" viewBox="0 0 97 18" fill="none" xmlns="http://www.w3.org/2000/svg">
<path d="M2.668 13.044V4.856H1.035C0.774333 4.856 0.590333 4.52633 0.483 3.867C0.437 3.545 0.414 3.21533 0.414 2.878C0.414 2.54067 0.437 2.211 0.483 1.889C0.590333 1.22967 0.774333 0.899999 1.035 0.899999H8.763C9.02367 0.899999 9.2 1.22967 9.292 1.889C9.35333 2.211 9.384 2.54067 9.384 2.878C9.384 3.21533 9.35333 3.545 9.292 3.867C9.2 4.52633 9.02367 4.856 8.763 4.856H7.222V13.044H8.832C9.09267 13.044 9.27667 13.3737 9.384 14.033C9.44533 14.355 9.476 14.6847 9.476 15.022C9.476 15.3593 9.44533 15.689 9.384 16.011C9.27667 16.6703 9.09267 17 8.832 17H1.081C0.820333 17 0.644 16.6703 0.552 16.011C0.490667 15.689 0.46 15.3593 0.46 15.022C0.46 14.6847 0.490667 14.355 0.552 14.033C0.644 13.3737 0.820333 13.044 1.081 13.044H2.668ZM24.0744 16.494C24.0744 16.816 23.3537 16.977 21.9124 16.977C20.471 16.977 19.689 16.862 19.5664 16.632L15.7254 9.456V16.609C15.7254 16.885 15.0124 17.023 13.5864 17.023C12.1757 17.023 11.4704 16.885 11.4704 16.609V1.222C11.4704 0.991999 12.076 0.876999 13.2874 0.876999C13.7627 0.876999 14.3147 0.922999 14.9434 1.015C15.5874 1.09167 15.9784 1.245 16.1164 1.475L19.7964 8.559V1.337C19.7964 1.04567 20.5094 0.899999 21.9354 0.899999C23.3614 0.899999 24.0744 1.04567 24.0744 1.337V16.494ZM26.1774 1.13C26.1314 0.961332 26.9057 0.876999 28.5004 0.876999C30.2637 0.876999 31.1684 1.02267 31.2144 1.314L32.3414 10.997L34.7794 1.199C34.8561 0.968999 35.4541 0.853999 36.5734 0.853999C37.6927 0.853999 38.2907 0.961333 38.3674 1.176L40.7594 11.043L42.0934 1.268C42.1241 1.09933 42.4767 0.984332 43.1514 0.922999C43.8261 0.861666 44.3704 0.831 44.7844 0.831C46.3944 0.831 47.1764 0.938333 47.1304 1.153L44.3474 16.402C44.2861 16.632 43.8491 16.8007 43.0364 16.908C42.2237 17.0153 41.5644 17.069 41.0584 17.069C39.1571 17.069 38.1604 16.8543 38.0684 16.425L36.5044 10.1L34.8024 16.402C34.7411 16.678 34.2044 16.8773 33.1924 17C32.6711 17.046 32.1497 17.069 31.6284 17.069L30.1564 17C29.1444 16.8927 28.6077 16.701 28.5464 16.425L26.1774 1.13ZM61.7383 16.609C61.7383 16.8697 60.964 17 59.4153 17C57.8666 17 57.0923 16.8697 57.0923 16.609V11.319H53.8723V16.609C53.8723 16.8697 53.098 17 51.5493 17C50.0006 17 49.2263 16.8697 49.2263 16.609V1.36C49.2263 1.038 50.0006 0.876999 51.5493 0.876999C53.098 0.876999 53.8723 1.038 53.8723 1.36V6.765H57.0923V1.406C57.0923 1.19133 57.4756 1.038 58.2423 0.946C58.641 0.915332 59.032 0.899999 59.4153 0.899999L60.5883 0.946C61.355 1.038 61.7383 1.19133 61.7383 1.406V16.609ZM66.006 13.044V4.856H64.373C64.1124 4.856 63.9284 4.52633 63.821 3.867C63.775 3.545 63.752 3.21533 63.752 2.878C63.752 2.54067 63.775 2.211 63.821 1.889C63.9284 1.22967 64.1124 0.899999 64.373 0.899999H72.101C72.3617 0.899999 72.538 1.22967 72.63 1.889C72.6914 2.211 72.722 2.54067 72.722 2.878C72.722 3.21533 72.6914 3.545 72.63 3.867C72.538 4.52633 72.3617 4.856 72.101 4.856H70.56V13.044H72.17C72.4307 13.044 72.6147 13.3737 72.722 14.033C72.7834 14.355 72.814 14.6847 72.814 15.022C72.814 15.3593 72.7834 15.689 72.722 16.011C72.6147 16.6703 72.4307 17 72.17 17H64.419C64.1584 17 63.982 16.6703 63.89 16.011C63.8287 15.689 63.798 15.3593 63.798 15.022C63.798 14.6847 63.8287 14.355 63.89 14.033C63.982 13.3737 64.1584 13.044 64.419 13.044H66.006ZM81.7314 16.632C81.7314 16.9387 80.9724 17.092 79.4544 17.092C77.9364 17.092 77.1774 16.9387 77.1774 16.632V5.086H74.4174C74.1567 5.086 73.9727 4.73333 73.8654 4.028C73.8194 3.69067 73.7964 3.34567 73.7964 2.993C73.7964 2.64033 73.8194 2.29533 73.8654 1.958C73.9727 1.25267 74.1567 0.899999 74.4174 0.899999H84.4224C84.6831 0.899999 84.8671 1.25267 84.9744 1.958C85.0204 2.29533 85.0434 2.64033 85.0434 2.993C85.0434 3.34567 85.0204 3.69067 84.9744 4.028C84.8671 4.73333 84.6831 5.086 84.4224 5.086H81.7314V16.632ZM94.2883 7.294C94.5797 7.294 94.7253 7.83067 94.7253 8.904C94.7253 9.226 94.687 9.60933 94.6103 10.054C94.549 10.4833 94.4263 10.698 94.2423 10.698H91.3213V12.998H95.5533C95.814 12.998 95.9903 13.3353 96.0823 14.01C96.1283 14.3013 96.1513 14.6157 96.1513 14.953C96.1513 15.275 96.1053 15.6967 96.0133 16.218C95.9213 16.7393 95.768 17 95.5533 17H87.6873C87.1047 17 86.8133 16.7623 86.8133 16.287V1.498C86.8133 1.09933 86.9897 0.899999 87.3423 0.899999H95.5763C95.8983 0.899999 96.0593 1.58233 96.0593 2.947C96.0593 4.29633 95.8983 4.971 95.5763 4.971H91.3213V7.294H94.2883Z" fill="white"/>
</svg>
