<svg width="12" height="12" viewBox="0 0 12 12" fill="none" xmlns="http://www.w3.org/2000/svg">
<path d="M6 0C2.68633 0 0 2.68633 0 6C0 9.31367 2.68633 12 6 12C6.18076 12 6.36084 11.9919 6.54004 11.9758C6.70664 11.9608 6.87178 11.938 7.03565 11.9094L7.09863 11.8982C10.1452 11.3297 12.2576 8.53447 11.9727 5.44834C11.6877 2.36221 9.09922 0.000976562 6 0V0ZM5.51797 11.5788H5.50381C5.34824 11.565 5.19385 11.5442 5.04082 11.5176C5.03203 11.516 5.02324 11.515 5.01465 11.5134C4.86504 11.4866 4.71699 11.4534 4.57041 11.4146L4.53496 11.4056C4.39199 11.3668 4.25059 11.3218 4.11123 11.2718C4.09678 11.2666 4.08223 11.262 4.06777 11.2566C3.93115 11.2064 3.79697 11.1502 3.66484 11.0894C3.64844 11.082 3.63203 11.075 3.61563 11.0672C3.48604 11.0072 3.35898 10.9396 3.23438 10.8686C3.2168 10.8586 3.19902 10.8486 3.18145 10.8388C3.05879 10.7672 2.93897 10.6904 2.82139 10.6094C2.80361 10.597 2.78564 10.585 2.76797 10.5726C2.65244 10.4906 2.53984 10.4036 2.43018 10.3126L2.4 10.2862V8.6C2.40147 7.38555 3.38555 6.40146 4.6 6.4H7.4C8.61445 6.40146 9.59854 7.38555 9.6 8.6V10.2864L9.57344 10.3086C9.46162 10.402 9.34688 10.4902 9.229 10.5736C9.21338 10.5846 9.19756 10.595 9.18203 10.6058C9.06309 10.6884 8.94121 10.7661 8.81641 10.8392C8.80078 10.8482 8.78477 10.8568 8.76924 10.8658C8.64277 10.9378 8.51416 11.0058 8.38301 11.067C8.36797 11.074 8.35283 11.0806 8.3376 11.087C8.2044 11.1484 8.06904 11.205 7.93145 11.2556C7.91777 11.2606 7.904 11.265 7.89141 11.2698C7.75137 11.32 7.60938 11.3654 7.46563 11.4044L7.43115 11.413C7.28438 11.4518 7.13623 11.4852 6.98643 11.512C6.97783 11.5136 6.96924 11.5146 6.96065 11.516C6.80742 11.5428 6.65283 11.5636 6.49717 11.5774H6.48301C6.32305 11.5912 6.16299 11.5986 6.00098 11.5986C5.83897 11.5986 5.67764 11.5926 5.51797 11.5788ZM10 9.91563V8.6C9.99834 7.16475 8.83525 6.00166 7.4 6H4.6C3.16475 6.00166 2.00166 7.16475 2 8.6V9.91543C-0.154102 7.71689 -0.130078 4.19199 2.05371 2.02295C4.2375 -0.145996 7.7625 -0.145996 9.94629 2.02295C12.1301 4.19199 12.1541 7.71689 10 9.91543V9.91563Z" fill="white" fill-opacity="0.6"/>
<path d="M6 1.59998C4.89541 1.59998 4 2.49539 4 3.59998C4 4.70456 4.89541 5.59997 6 5.59997C7.10459 5.59997 8 4.70456 8 3.59998C7.99883 2.49587 7.1041 1.60115 6 1.59998ZM6 5.19997C5.11631 5.19997 4.4 4.48367 4.4 3.59998C4.4 2.71628 5.11631 1.99998 6 1.99998C6.88369 1.99998 7.6 2.71628 7.6 3.59998C7.59902 4.48318 6.8832 5.199 6 5.19997Z" fill="white" fill-opacity="0.6"/>
</svg>
