<svg width="13" height="13" viewBox="0 0 13 13" fill="none" xmlns="http://www.w3.org/2000/svg">
<path d="M8.36647 2.27393H2.32306C1.75599 2.27393 1.29541 2.7345 1.29541 3.30157V11.9727C1.29541 12.5397 1.75599 13.0003 2.32306 13.0003H8.36647C8.93354 13.0003 9.39412 12.5397 9.39412 11.9727V3.30157C9.39146 2.7345 8.93088 2.27393 8.36647 2.27393ZM8.67264 11.97C8.67264 12.1404 8.5342 12.2788 8.36381 12.2788H2.32039C2.15001 12.2788 2.01157 12.1404 2.01157 11.97V3.30157C2.01157 3.13119 2.15001 2.99275 2.32039 2.99275H8.36381C8.5342 2.99275 8.67264 3.13119 8.67264 3.30157V11.97Z" fill="white"/>
<path d="M10.6775 0H4.63409C4.06702 0 3.60645 0.460577 3.60645 1.02765C3.60645 1.22732 3.76618 1.38706 3.96586 1.38706C4.16553 1.38706 4.32527 1.22732 4.32527 1.02765C4.32527 0.85726 4.46371 0.71882 4.63409 0.71882H10.6775C10.8479 0.71882 10.9863 0.85726 10.9863 1.02765V9.69875C10.9863 9.86914 10.8479 10.0076 10.6775 10.0076C10.4778 10.0076 10.3181 10.1673 10.3181 10.367C10.3181 10.5667 10.4778 10.7264 10.6775 10.7264C11.2446 10.7264 11.7052 10.2658 11.7052 9.69875V1.02765C11.7052 0.460577 11.2446 0 10.6775 0Z" fill="white"/>
</svg>
