<svg width="12" height="12" viewBox="0 0 12 12" fill="none" xmlns="http://www.w3.org/2000/svg">
<path d="M12 0H10.5108L9.89062 0.310055L9.27049 0H6.35156L6 0.175781L4.82812 2.56043L6 4.50527L9.89062 7.42969L9.53906 9.89062H8.13281L7.22145 8.81967L7.0335 8.05636L6.31008 7.74872L6 7.38436L5.29688 9.42096L6 12L6.62013 11.6899L7.24027 12H12V7.24027L11.6899 6.62013L12 6V0ZM9.89062 5.27344L6.72656 2.10938H8.83594L9.89062 3.16406V5.27344Z" fill="#D5011D"/>
<path d="M2.10938 2.8125L2.8125 2.10938L6 4.50527V0.175781L5.64844 0.351562H3.70505L3.00192 0H0V5.64844L0.351562 6.35156V8.29495L0 8.99808V12H6V7.38436L2.10938 2.8125ZM3.16406 9.89062L2.10938 8.83594V6.72656L5.27344 9.89062H3.16406Z" fill="#FF4B37"/>
</svg>
