<svg width="11" height="11" viewBox="0 0 11 11" fill="none" xmlns="http://www.w3.org/2000/svg">
<g clip-path="url(#clip0)">
<path d="M6.1875 11H1.14583C0.51425 11 0 10.4858 0 9.85417V1.14583C0 0.51425 0.51425 0 1.14583 0H6.1875C6.81908 0 7.33333 0.51425 7.33333 1.14583V3.89583C7.33333 4.02233 7.23067 4.125 7.10417 4.125C6.97767 4.125 6.875 4.02233 6.875 3.89583V1.14583C6.875 0.766792 6.56654 0.458333 6.1875 0.458333H1.14583C0.766792 0.458333 0.458333 0.766792 0.458333 1.14583V9.85417C0.458333 10.2332 0.766792 10.5417 1.14583 10.5417H6.1875C6.56654 10.5417 6.875 10.2332 6.875 9.85417V7.10417C6.875 6.97767 6.97767 6.875 7.10417 6.875C7.23067 6.875 7.33333 6.97767 7.33333 7.10417V9.85417C7.33333 10.4858 6.81908 11 6.1875 11Z" fill="#B25959"/>
<path d="M10.7712 5.72914H3.89616C3.76966 5.72914 3.66699 5.62647 3.66699 5.49998C3.66699 5.37348 3.76966 5.27081 3.89616 5.27081H10.7712C10.8977 5.27081 11.0003 5.37348 11.0003 5.49998C11.0003 5.62647 10.8977 5.72914 10.7712 5.72914Z" fill="#B25959"/>
<path d="M8.93729 7.56252C8.87862 7.56252 8.81995 7.54006 8.77504 7.49561C8.68566 7.40623 8.68566 7.26094 8.77504 7.17156L10.4466 5.50002L8.7755 3.82894C8.68612 3.73956 8.68612 3.59427 8.7755 3.5049C8.86487 3.41552 9.01016 3.41552 9.09954 3.5049L10.9329 5.33823C11.0222 5.42761 11.0222 5.5729 10.9329 5.66227L9.09954 7.49561C9.05462 7.54006 8.99595 7.56252 8.93729 7.56252Z" fill="#B25959"/>
</g>
<defs>
<clipPath id="clip0">
<rect width="11" height="11" fill="white"/>
</clipPath>
</defs>
</svg>
