<svg width="16" height="16" viewBox="0 0 16 16" fill="none" xmlns="http://www.w3.org/2000/svg">
<path d="M9 11H6C6 8 7.6 7 8.7 6.4C9.1 6.2 9.4 6 9.6 5.8C10.1 5.3 9.9 4.6 9.8 4.4C9.5 3.7 8.8 3 7.5 3C5.4 3 5 4.9 5 5.3L2 4.9C2.2 3.2 3.7 0 7.5 0C9.8 0 11.8 1.3 12.6 3.2C13.3 4.9 13 6.7 11.8 7.9C11.3 8.4 10.7 8.7 10.2 9C9.3 9.5 9 10 9 11Z" fill="#3C3B3B"/>
<path d="M9.5 14C9.5 15.105 8.605 16 7.5 16C6.395 16 5.5 15.105 5.5 14C5.5 12.895 6.395 12 7.5 12C8.605 12 9.5 12.895 9.5 14Z" fill="#3C3B3B"/>
</svg>
